<svg xmlns="http://www.w3.org/2000/svg" viewBox="0 0 1600 1000" preserveAspectRatio="xMidYMax slice">
  <!-- Placeholder drawn for Spelling Quest; to be replaced by Leonardo art. -->
  <defs><linearGradient id="sky" x1="0" y1="0" x2="0" y2="1"><stop offset="0" stop-color="#b9a7f2"/><stop offset="1" stop-color="#ffe3f1"/></linearGradient></defs>
  <rect width="1600" height="1000" fill="url(#sky)"/>
  <g transform="translate(200 140) scale(1)" fill="#fff" opacity="0.95"><ellipse cx="0" cy="0" rx="70" ry="34"/><ellipse cx="55" cy="-20" rx="52" ry="42"/><ellipse cx="112" cy="2" rx="62" ry="30"/></g><g transform="translate(1300 110) scale(0.8)" fill="#fff" opacity="0.95"><ellipse cx="0" cy="0" rx="70" ry="34"/><ellipse cx="55" cy="-20" rx="52" ry="42"/><ellipse cx="112" cy="2" rx="62" ry="30"/></g><path d="M0 640 Q250 520 520 620 T1050 600 T1600 590 V760 H0Z" fill="#c3ecc9"/><g transform="translate(980 380)"><rect x="0" y="120" width="440" height="260" fill="#fff4e6"/><path d="M0 40 h55 v80 q-27 30 -55 0z" fill="#ff8fb1"/><path d="M55 40 h55 v80 q-27 30 -55 0z" fill="#ffffff"/><path d="M110 40 h55 v80 q-27 30 -55 0z" fill="#ff8fb1"/><path d="M165 40 h55 v80 q-27 30 -55 0z" fill="#ffffff"/><path d="M220 40 h55 v80 q-27 30 -55 0z" fill="#ff8fb1"/><path d="M275 40 h55 v80 q-27 30 -55 0z" fill="#ffffff"/><path d="M330 40 h55 v80 q-27 30 -55 0z" fill="#ff8fb1"/><path d="M385 40 h55 v80 q-27 30 -55 0z" fill="#ffffff"/><rect x="-10" y="20" width="460" height="24" rx="10" fill="#e2579b"/><rect x="20" y="240" width="400" height="30" fill="#f6c99c"/><g transform="translate(60 225)"><path d="M-22 0 h44 l-6 30 h-32z" fill="#b197fc"/><circle cy="-6" r="22" fill="#ffc2dc"/><circle cy="-30" r="6" fill="#ff4d6d"/></g><g transform="translate(140 225)"><path d="M-22 0 h44 l-6 30 h-32z" fill="#b197fc"/><circle cy="-6" r="22" fill="#fff3bf"/><circle cy="-30" r="6" fill="#ff4d6d"/></g><g transform="translate(220 225)"><path d="M-22 0 h44 l-6 30 h-32z" fill="#b197fc"/><circle cy="-6" r="22" fill="#d3f9d8"/><circle cy="-30" r="6" fill="#ff4d6d"/></g><g transform="translate(300 225)"><path d="M-22 0 h44 l-6 30 h-32z" fill="#b197fc"/><circle cy="-6" r="22" fill="#d0ebff"/><circle cy="-30" r="6" fill="#ff4d6d"/></g><g transform="translate(380 225)"><path d="M-22 0 h44 l-6 30 h-32z" fill="#b197fc"/><circle cy="-6" r="22" fill="#ffc2dc"/><circle cy="-30" r="6" fill="#ff4d6d"/></g></g><g transform="translate(66 844)"><circle r="9" cx="0" cy="-10" fill="#ffffff"/><circle r="9" cx="10" cy="0" fill="#ffffff"/><circle r="9" cx="0" cy="10" fill="#ffffff"/><circle r="9" cx="-10" cy="0" fill="#ffffff"/><circle r="6" fill="#ffa94d"/></g><g transform="translate(210 913)"><circle r="9" cx="0" cy="-10" fill="#ff8fb1"/><circle r="9" cx="10" cy="0" fill="#ff8fb1"/><circle r="9" cx="0" cy="10" fill="#ff8fb1"/><circle r="9" cx="-10" cy="0" fill="#ff8fb1"/><circle r="6" fill="#ffa94d"/></g><g transform="translate(343 899)"><circle r="9" cx="0" cy="-10" fill="#ffffff"/><circle r="9" cx="10" cy="0" fill="#ffffff"/><circle r="9" cx="0" cy="10" fill="#ffffff"/><circle r="9" cx="-10" cy="0" fill="#ffffff"/><circle r="6" fill="#ffa94d"/></g><g transform="translate(532 875)"><circle r="9" cx="0" cy="-10" fill="#ffd43b"/><circle r="9" cx="10" cy="0" fill="#ffd43b"/><circle r="9" cx="0" cy="10" fill="#ffd43b"/><circle r="9" cx="-10" cy="0" fill="#ffd43b"/><circle r="6" fill="#ffa94d"/></g><g transform="translate(632 906)"><circle r="9" cx="0" cy="-10" fill="#ffffff"/><circle r="9" cx="10" cy="0" fill="#ffffff"/><circle r="9" cx="0" cy="10" fill="#ffffff"/><circle r="9" cx="-10" cy="0" fill="#ffffff"/><circle r="6" fill="#ffa94d"/></g><g transform="translate(800 849)"><circle r="9" cx="0" cy="-10" fill="#ffd43b"/><circle r="9" cx="10" cy="0" fill="#ffd43b"/><circle r="9" cx="0" cy="10" fill="#ffd43b"/><circle r="9" cx="-10" cy="0" fill="#ffd43b"/><circle r="6" fill="#ffa94d"/></g><g transform="translate(990 935)"><circle r="9" cx="0" cy="-10" fill="#b197fc"/><circle r="9" cx="10" cy="0" fill="#b197fc"/><circle r="9" cx="0" cy="10" fill="#b197fc"/><circle r="9" cx="-10" cy="0" fill="#b197fc"/><circle r="6" fill="#ffa94d"/></g><g transform="translate(1082 893)"><circle r="9" cx="0" cy="-10" fill="#ffd43b"/><circle r="9" cx="10" cy="0" fill="#ffd43b"/><circle r="9" cx="0" cy="10" fill="#ffd43b"/><circle r="9" cx="-10" cy="0" fill="#ffd43b"/><circle r="6" fill="#ffa94d"/></g><g transform="translate(1268 885)"><circle r="9" cx="0" cy="-10" fill="#ffffff"/><circle r="9" cx="10" cy="0" fill="#ffffff"/><circle r="9" cx="0" cy="10" fill="#ffffff"/><circle r="9" cx="-10" cy="0" fill="#ffffff"/><circle r="6" fill="#ffa94d"/></g><g transform="translate(1406 876)"><circle r="9" cx="0" cy="-10" fill="#b197fc"/><circle r="9" cx="10" cy="0" fill="#b197fc"/><circle r="9" cx="0" cy="10" fill="#b197fc"/><circle r="9" cx="-10" cy="0" fill="#b197fc"/><circle r="6" fill="#ffa94d"/></g>
  <path d="M0 720 Q400 670 800 715 T1600 700 V1000 H0Z" fill="#a8e6b4"/>
  <path d="M0 790 Q500 760 1000 795 T1600 785 V1000 H0Z" fill="#93dba2"/>
</svg>
