<svg xmlns="http://www.w3.org/2000/svg" viewBox="0 0 1600 1000" preserveAspectRatio="xMidYMax slice">
  <!-- Placeholder drawn for Spelling Quest; to be replaced by Leonardo art. -->
  <defs><linearGradient id="sky" x1="0" y1="0" x2="0" y2="1"><stop offset="0" stop-color="#b9a7f2"/><stop offset="1" stop-color="#ffe3f1"/></linearGradient></defs>
  <rect width="1600" height="1000" fill="url(#sky)"/>
  <g transform="translate(180 150) scale(1)" fill="#fff" opacity="0.95"><ellipse cx="0" cy="0" rx="70" ry="34"/><ellipse cx="55" cy="-20" rx="52" ry="42"/><ellipse cx="112" cy="2" rx="62" ry="30"/></g><g transform="translate(1250 120) scale(0.8)" fill="#fff" opacity="0.95"><ellipse cx="0" cy="0" rx="70" ry="34"/><ellipse cx="55" cy="-20" rx="52" ry="42"/><ellipse cx="112" cy="2" rx="62" ry="30"/></g><path d="M240 700 A560 560 0 0 1 1360 700" stroke="#d8d3e3" stroke-width="34" fill="none" opacity="0.9"/><path d="M274 700 A526 526 0 0 1 1326 700" stroke="#ddd8e6" stroke-width="34" fill="none" opacity="0.9"/><path d="M308 700 A492 492 0 0 1 1292 700" stroke="#e2deea" stroke-width="34" fill="none" opacity="0.9"/><path d="M342 700 A458 458 0 0 1 1258 700" stroke="#e6e2ee" stroke-width="34" fill="none" opacity="0.9"/><path d="M376 700 A424 424 0 0 1 1224 700" stroke="#ebe7f2" stroke-width="34" fill="none" opacity="0.9"/><path d="M410 700 A390 390 0 0 1 1190 700" stroke="#efecf5" stroke-width="34" fill="none" opacity="0.9"/><path d="M0 640 Q250 520 520 620 T1050 600 T1600 590 V760 H0Z" fill="#c3ecc9"/><g transform="translate(1300 600)"><rect x="-6" y="0" width="12" height="80" fill="#b98a5e"/><circle cy="-20" r="60" fill="#8fd6a0"/><circle cx="-40" cy="10" r="40" fill="#8fd6a0"/><circle cx="40" cy="10" r="40" fill="#8fd6a0"/></g><g transform="translate(36 898)"><circle r="9" cx="0" cy="-10" fill="#ffd43b"/><circle r="9" cx="10" cy="0" fill="#ffd43b"/><circle r="9" cx="0" cy="10" fill="#ffd43b"/><circle r="9" cx="-10" cy="0" fill="#ffd43b"/><circle r="6" fill="#ffa94d"/></g><g transform="translate(154 914)"><circle r="9" cx="0" cy="-10" fill="#b197fc"/><circle r="9" cx="10" cy="0" fill="#b197fc"/><circle r="9" cx="0" cy="10" fill="#b197fc"/><circle r="9" cx="-10" cy="0" fill="#b197fc"/><circle r="6" fill="#ffa94d"/></g><g transform="translate(262 913)"><circle r="9" cx="0" cy="-10" fill="#ff8fb1"/><circle r="9" cx="10" cy="0" fill="#ff8fb1"/><circle r="9" cx="0" cy="10" fill="#ff8fb1"/><circle r="9" cx="-10" cy="0" fill="#ff8fb1"/><circle r="6" fill="#ffa94d"/></g><g transform="translate(393 877)"><circle r="9" cx="0" cy="-10" fill="#b197fc"/><circle r="9" cx="10" cy="0" fill="#b197fc"/><circle r="9" cx="0" cy="10" fill="#b197fc"/><circle r="9" cx="-10" cy="0" fill="#b197fc"/><circle r="6" fill="#ffa94d"/></g><g transform="translate(487 907)"><circle r="9" cx="0" cy="-10" fill="#ffffff"/><circle r="9" cx="10" cy="0" fill="#ffffff"/><circle r="9" cx="0" cy="10" fill="#ffffff"/><circle r="9" cx="-10" cy="0" fill="#ffffff"/><circle r="6" fill="#ffa94d"/></g><g transform="translate(590 919)"><circle r="9" cx="0" cy="-10" fill="#ff8fb1"/><circle r="9" cx="10" cy="0" fill="#ff8fb1"/><circle r="9" cx="0" cy="10" fill="#ff8fb1"/><circle r="9" cx="-10" cy="0" fill="#ff8fb1"/><circle r="6" fill="#ffa94d"/></g><g transform="translate(688 848)"><circle r="9" cx="0" cy="-10" fill="#b197fc"/><circle r="9" cx="10" cy="0" fill="#b197fc"/><circle r="9" cx="0" cy="10" fill="#b197fc"/><circle r="9" cx="-10" cy="0" fill="#b197fc"/><circle r="6" fill="#ffa94d"/></g><g transform="translate(801 923)"><circle r="9" cx="0" cy="-10" fill="#b197fc"/><circle r="9" cx="10" cy="0" fill="#b197fc"/><circle r="9" cx="0" cy="10" fill="#b197fc"/><circle r="9" cx="-10" cy="0" fill="#b197fc"/><circle r="6" fill="#ffa94d"/></g><g transform="translate(909 922)"><circle r="9" cx="0" cy="-10" fill="#ffd43b"/><circle r="9" cx="10" cy="0" fill="#ffd43b"/><circle r="9" cx="0" cy="10" fill="#ffd43b"/><circle r="9" cx="-10" cy="0" fill="#ffd43b"/><circle r="6" fill="#ffa94d"/></g><g transform="translate(1003 890)"><circle r="9" cx="0" cy="-10" fill="#b197fc"/><circle r="9" cx="10" cy="0" fill="#b197fc"/><circle r="9" cx="0" cy="10" fill="#b197fc"/><circle r="9" cx="-10" cy="0" fill="#b197fc"/><circle r="6" fill="#ffa94d"/></g><g transform="translate(1110 821)"><circle r="9" cx="0" cy="-10" fill="#ff8fb1"/><circle r="9" cx="10" cy="0" fill="#ff8fb1"/><circle r="9" cx="0" cy="10" fill="#ff8fb1"/><circle r="9" cx="-10" cy="0" fill="#ff8fb1"/><circle r="6" fill="#ffa94d"/></g><g transform="translate(1214 896)"><circle r="9" cx="0" cy="-10" fill="#b197fc"/><circle r="9" cx="10" cy="0" fill="#b197fc"/><circle r="9" cx="0" cy="10" fill="#b197fc"/><circle r="9" cx="-10" cy="0" fill="#b197fc"/><circle r="6" fill="#ffa94d"/></g><g transform="translate(1315 830)"><circle r="9" cx="0" cy="-10" fill="#b197fc"/><circle r="9" cx="10" cy="0" fill="#b197fc"/><circle r="9" cx="0" cy="10" fill="#b197fc"/><circle r="9" cx="-10" cy="0" fill="#b197fc"/><circle r="6" fill="#ffa94d"/></g><g transform="translate(1434 929)"><circle r="9" cx="0" cy="-10" fill="#ffffff"/><circle r="9" cx="10" cy="0" fill="#ffffff"/><circle r="9" cx="0" cy="10" fill="#ffffff"/><circle r="9" cx="-10" cy="0" fill="#ffffff"/><circle r="6" fill="#ffa94d"/></g>
  <path d="M0 720 Q400 670 800 715 T1600 700 V1000 H0Z" fill="#a8e6b4"/>
  <path d="M0 790 Q500 760 1000 795 T1600 785 V1000 H0Z" fill="#93dba2"/>
</svg>
