<svg xmlns="http://www.w3.org/2000/svg" viewBox="0 0 300 300">
  <!-- Pip the unicorn, drawn for Spelling Quest. -->
  <ellipse cx="150" cy="288" rx="104" ry="8" fill="#000" opacity="0.10"/>
  <path d="M78 168 C40 150 20 196 44 236" stroke="#ff7b8a" stroke-width="12" stroke-linecap="round" fill="none"/><path d="M78 168 C38 156 23 202 48 239" stroke="#ffad5a" stroke-width="12" stroke-linecap="round" fill="none"/><path d="M78 168 C36 162 26 208 52 242" stroke="#ffd84d" stroke-width="12" stroke-linecap="round" fill="none"/><path d="M78 168 C34 168 29 214 56 245" stroke="#7ddc8a" stroke-width="12" stroke-linecap="round" fill="none"/><path d="M78 168 C32 174 32 220 60 248" stroke="#62b6f7" stroke-width="12" stroke-linecap="round" fill="none"/><path d="M78 168 C30 180 35 226 64 251" stroke="#b28cf5" stroke-width="12" stroke-linecap="round" fill="none"/>
  <rect x="92" y="198" width="24" height="84" rx="12" fill="#e9defa"/><path d="M92 270 h24 v6 a8 8 0 0 1 -8 8 h-8 a8 8 0 0 1 -8 -8z" fill="#c3a9f2"/><rect x="150" y="198" width="24" height="84" rx="12" fill="#e9defa"/><path d="M150 270 h24 v6 a8 8 0 0 1 -8 8 h-8 a8 8 0 0 1 -8 -8z" fill="#c3a9f2"/>
  <rect x="70" y="198" width="24" height="84" rx="12" fill="#fbf7ff"/><path d="M70 270 h24 v6 a8 8 0 0 1 -8 8 h-8 a8 8 0 0 1 -8 -8z" fill="#c3a9f2"/>
  <path d="M60 176 C60 140 96 126 140 128 C178 130 206 138 212 170 C218 206 186 222 136 222 C88 222 60 212 60 176Z" fill="#fbf7ff"/>
  <rect x="186" y="198" width="24" height="84" rx="12" fill="#fbf7ff"/><path d="M186 270 h24 v6 a8 8 0 0 1 -8 8 h-8 a8 8 0 0 1 -8 -8z" fill="#c3a9f2"/>
  <path d="M160 150 C162 116 176 88 196 70 L238 98 C214 116 204 140 204 176Z" fill="#fbf7ff"/>
  <path d="M190 58 C160 70 150 110 146 150" stroke="#ff7b8a" stroke-width="13" stroke-linecap="round" fill="none"/><path d="M183 66 C152 80 142 120 140 156" stroke="#ffad5a" stroke-width="13" stroke-linecap="round" fill="none"/><path d="M176 74 C144 90 134 130 134 162" stroke="#ffd84d" stroke-width="13" stroke-linecap="round" fill="none"/><path d="M169 82 C136 100 126 140 128 168" stroke="#7ddc8a" stroke-width="13" stroke-linecap="round" fill="none"/><path d="M162 90 C128 110 118 150 122 174" stroke="#62b6f7" stroke-width="13" stroke-linecap="round" fill="none"/><path d="M155 98 C120 120 110 160 116 180" stroke="#b28cf5" stroke-width="13" stroke-linecap="round" fill="none"/>
  <path d="M188 92 C188 62 206 52 226 54 C250 56 262 76 262 98 C276 104 282 116 278 128 C274 142 258 146 244 142 C226 140 206 132 196 120 C190 112 188 102 188 92Z" fill="#fbf7ff"/>
  <circle cx="268" cy="118" r="3" fill="#d6c2ee"/>
  <path d="M206 60 L198 30 L222 52Z" fill="#fbf7ff"/><path d="M207 52 L203 38 L215 49Z" fill="#ffc6de"/>
  <path d="M226 54 L244 6 L240 58Z" fill="#ffd84d"/>
  <path d="M229 46 l12 -5 M232 34 l9 -4 M236 22 l6 -3" stroke="#f2b705" stroke-width="3" stroke-linecap="round"/>
  <path d="M198 48 q-14 -14 -30 -8" stroke="#ff7b8a" stroke-width="9" stroke-linecap="round" fill="none"/><path d="M207 48 q-14 -14 -30 -8" stroke="#ffad5a" stroke-width="9" stroke-linecap="round" fill="none"/><path d="M216 48 q-14 -14 -30 -8" stroke="#ffd84d" stroke-width="9" stroke-linecap="round" fill="none"/>
  <ellipse cx="228" cy="94" rx="7" ry="9" fill="#3d2a66"/><circle cx="230" cy="90" r="2.6" fill="#fff"/>
  <ellipse cx="238" cy="116" rx="10" ry="6" fill="#ff9fbf" opacity="0.55"/>
  <path d="M248 133 h13" stroke="#3d2a66" stroke-width="4.5" stroke-linecap="round" fill="none"/>
  <g fill="#8a5cd6" opacity="0.85"><circle cx="268" cy="54" r="5"/><circle cx="282" cy="36" r="7"/><circle cx="290" cy="12" r="9"/></g>
</svg>
